<mxfile host="app.diagrams.net" agent="Mozilla/5.0 (Windows NT 10.0; Win64; x64) AppleWebKit/537.36 (KHTML, like Gecko) Chrome/136.0.0.0 Safari/537.36" version="27.0.6">
  <diagram name="Page-1" id="anJjeccDpInAfZ2vyWGH">
    <mxGraphModel grid="1" page="1" gridSize="10" guides="1" tooltips="1" connect="1" arrows="1" fold="1" pageScale="1" pageWidth="2339" pageHeight="3300" math="0" shadow="0">
      <root>
        <mxCell id="0" />
        <mxCell id="1" parent="0" />
        <mxCell id="9fxZDP8HOBDAImfzd7i4-1" value="&lt;h1 style=&quot;margin-top: 0px;&quot;&gt;Data Model&lt;/h1&gt;" style="text;html=1;whiteSpace=wrap;overflow=hidden;rounded=0;" vertex="1" parent="1">
          <mxGeometry x="40" y="10" width="180" height="60" as="geometry" />
        </mxCell>
        <mxCell id="YbiGAAGeXI5e13HnEoxO-1" value="gold.dim_customers" style="shape=table;startSize=30;container=1;collapsible=1;childLayout=tableLayout;fixedRows=1;rowLines=0;fontStyle=1;align=center;resizeLast=1;html=1;fillColor=#fff2cc;strokeColor=#d6b656;rounded=1;fontSize=16;" vertex="1" parent="1">
          <mxGeometry x="40" y="120" width="200" height="354" as="geometry" />
        </mxCell>
        <mxCell id="YbiGAAGeXI5e13HnEoxO-2" value="" style="shape=tableRow;horizontal=0;startSize=0;swimlaneHead=0;swimlaneBody=0;fillColor=none;collapsible=0;dropTarget=0;points=[[0,0.5],[1,0.5]];portConstraint=eastwest;top=0;left=0;right=0;bottom=1;fontSize=16;fontStyle=1" vertex="1" parent="YbiGAAGeXI5e13HnEoxO-1">
          <mxGeometry y="30" width="200" height="36" as="geometry" />
        </mxCell>
        <mxCell id="YbiGAAGeXI5e13HnEoxO-3" value="PK" style="shape=partialRectangle;connectable=0;fillColor=none;top=0;left=0;bottom=0;right=0;fontStyle=1;overflow=hidden;whiteSpace=wrap;html=1;fontSize=16;" vertex="1" parent="YbiGAAGeXI5e13HnEoxO-2">
          <mxGeometry width="30" height="36" as="geometry">
            <mxRectangle width="30" height="36" as="alternateBounds" />
          </mxGeometry>
        </mxCell>
        <mxCell id="YbiGAAGeXI5e13HnEoxO-4" value="customer_key" style="shape=partialRectangle;connectable=0;fillColor=none;top=0;left=0;bottom=0;right=0;align=left;spacingLeft=6;fontStyle=5;overflow=hidden;whiteSpace=wrap;html=1;fontSize=16;" vertex="1" parent="YbiGAAGeXI5e13HnEoxO-2">
          <mxGeometry x="30" width="170" height="36" as="geometry">
            <mxRectangle width="170" height="36" as="alternateBounds" />
          </mxGeometry>
        </mxCell>
        <mxCell id="YbiGAAGeXI5e13HnEoxO-5" value="" style="shape=tableRow;horizontal=0;startSize=0;swimlaneHead=0;swimlaneBody=0;fillColor=none;collapsible=0;dropTarget=0;points=[[0,0.5],[1,0.5]];portConstraint=eastwest;top=0;left=0;right=0;bottom=0;fontSize=16;fontStyle=0" vertex="1" parent="YbiGAAGeXI5e13HnEoxO-1">
          <mxGeometry y="66" width="200" height="36" as="geometry" />
        </mxCell>
        <mxCell id="YbiGAAGeXI5e13HnEoxO-6" value="" style="shape=partialRectangle;connectable=0;fillColor=none;top=0;left=0;bottom=0;right=0;editable=1;overflow=hidden;whiteSpace=wrap;html=1;fontSize=16;fontStyle=0" vertex="1" parent="YbiGAAGeXI5e13HnEoxO-5">
          <mxGeometry width="30" height="36" as="geometry">
            <mxRectangle width="30" height="36" as="alternateBounds" />
          </mxGeometry>
        </mxCell>
        <mxCell id="YbiGAAGeXI5e13HnEoxO-7" value="customer_id" style="shape=partialRectangle;connectable=0;fillColor=none;top=0;left=0;bottom=0;right=0;align=left;spacingLeft=6;overflow=hidden;whiteSpace=wrap;html=1;fontSize=16;fontStyle=0" vertex="1" parent="YbiGAAGeXI5e13HnEoxO-5">
          <mxGeometry x="30" width="170" height="36" as="geometry">
            <mxRectangle width="170" height="36" as="alternateBounds" />
          </mxGeometry>
        </mxCell>
        <mxCell id="YbiGAAGeXI5e13HnEoxO-8" value="" style="shape=tableRow;horizontal=0;startSize=0;swimlaneHead=0;swimlaneBody=0;fillColor=none;collapsible=0;dropTarget=0;points=[[0,0.5],[1,0.5]];portConstraint=eastwest;top=0;left=0;right=0;bottom=0;fontSize=16;fontStyle=0" vertex="1" parent="YbiGAAGeXI5e13HnEoxO-1">
          <mxGeometry y="102" width="200" height="36" as="geometry" />
        </mxCell>
        <mxCell id="YbiGAAGeXI5e13HnEoxO-9" value="" style="shape=partialRectangle;connectable=0;fillColor=none;top=0;left=0;bottom=0;right=0;editable=1;overflow=hidden;whiteSpace=wrap;html=1;fontSize=16;fontStyle=0" vertex="1" parent="YbiGAAGeXI5e13HnEoxO-8">
          <mxGeometry width="30" height="36" as="geometry">
            <mxRectangle width="30" height="36" as="alternateBounds" />
          </mxGeometry>
        </mxCell>
        <mxCell id="YbiGAAGeXI5e13HnEoxO-10" value="customer_number" style="shape=partialRectangle;connectable=0;fillColor=none;top=0;left=0;bottom=0;right=0;align=left;spacingLeft=6;overflow=hidden;whiteSpace=wrap;html=1;fontSize=16;fontStyle=0" vertex="1" parent="YbiGAAGeXI5e13HnEoxO-8">
          <mxGeometry x="30" width="170" height="36" as="geometry">
            <mxRectangle width="170" height="36" as="alternateBounds" />
          </mxGeometry>
        </mxCell>
        <mxCell id="YbiGAAGeXI5e13HnEoxO-11" value="" style="shape=tableRow;horizontal=0;startSize=0;swimlaneHead=0;swimlaneBody=0;fillColor=none;collapsible=0;dropTarget=0;points=[[0,0.5],[1,0.5]];portConstraint=eastwest;top=0;left=0;right=0;bottom=0;fontSize=16;fontStyle=0" vertex="1" parent="YbiGAAGeXI5e13HnEoxO-1">
          <mxGeometry y="138" width="200" height="36" as="geometry" />
        </mxCell>
        <mxCell id="YbiGAAGeXI5e13HnEoxO-12" value="" style="shape=partialRectangle;connectable=0;fillColor=none;top=0;left=0;bottom=0;right=0;editable=1;overflow=hidden;whiteSpace=wrap;html=1;fontSize=16;fontStyle=0" vertex="1" parent="YbiGAAGeXI5e13HnEoxO-11">
          <mxGeometry width="30" height="36" as="geometry">
            <mxRectangle width="30" height="36" as="alternateBounds" />
          </mxGeometry>
        </mxCell>
        <mxCell id="YbiGAAGeXI5e13HnEoxO-13" value="first_name" style="shape=partialRectangle;connectable=0;fillColor=none;top=0;left=0;bottom=0;right=0;align=left;spacingLeft=6;overflow=hidden;whiteSpace=wrap;html=1;fontSize=16;fontStyle=0" vertex="1" parent="YbiGAAGeXI5e13HnEoxO-11">
          <mxGeometry x="30" width="170" height="36" as="geometry">
            <mxRectangle width="170" height="36" as="alternateBounds" />
          </mxGeometry>
        </mxCell>
        <mxCell id="YbiGAAGeXI5e13HnEoxO-14" value="" style="shape=tableRow;horizontal=0;startSize=0;swimlaneHead=0;swimlaneBody=0;fillColor=none;collapsible=0;dropTarget=0;points=[[0,0.5],[1,0.5]];portConstraint=eastwest;top=0;left=0;right=0;bottom=0;fontSize=16;fontStyle=0" vertex="1" parent="YbiGAAGeXI5e13HnEoxO-1">
          <mxGeometry y="174" width="200" height="36" as="geometry" />
        </mxCell>
        <mxCell id="YbiGAAGeXI5e13HnEoxO-15" value="" style="shape=partialRectangle;connectable=0;fillColor=none;top=0;left=0;bottom=0;right=0;editable=1;overflow=hidden;whiteSpace=wrap;html=1;fontSize=16;fontStyle=0" vertex="1" parent="YbiGAAGeXI5e13HnEoxO-14">
          <mxGeometry width="30" height="36" as="geometry">
            <mxRectangle width="30" height="36" as="alternateBounds" />
          </mxGeometry>
        </mxCell>
        <mxCell id="YbiGAAGeXI5e13HnEoxO-16" value="last_name" style="shape=partialRectangle;connectable=0;fillColor=none;top=0;left=0;bottom=0;right=0;align=left;spacingLeft=6;overflow=hidden;whiteSpace=wrap;html=1;fontSize=16;fontStyle=0" vertex="1" parent="YbiGAAGeXI5e13HnEoxO-14">
          <mxGeometry x="30" width="170" height="36" as="geometry">
            <mxRectangle width="170" height="36" as="alternateBounds" />
          </mxGeometry>
        </mxCell>
        <mxCell id="YbiGAAGeXI5e13HnEoxO-17" value="" style="shape=tableRow;horizontal=0;startSize=0;swimlaneHead=0;swimlaneBody=0;fillColor=none;collapsible=0;dropTarget=0;points=[[0,0.5],[1,0.5]];portConstraint=eastwest;top=0;left=0;right=0;bottom=0;fontSize=16;fontStyle=0" vertex="1" parent="YbiGAAGeXI5e13HnEoxO-1">
          <mxGeometry y="210" width="200" height="36" as="geometry" />
        </mxCell>
        <mxCell id="YbiGAAGeXI5e13HnEoxO-18" value="" style="shape=partialRectangle;connectable=0;fillColor=none;top=0;left=0;bottom=0;right=0;editable=1;overflow=hidden;whiteSpace=wrap;html=1;fontSize=16;fontStyle=0" vertex="1" parent="YbiGAAGeXI5e13HnEoxO-17">
          <mxGeometry width="30" height="36" as="geometry">
            <mxRectangle width="30" height="36" as="alternateBounds" />
          </mxGeometry>
        </mxCell>
        <mxCell id="YbiGAAGeXI5e13HnEoxO-19" value="country" style="shape=partialRectangle;connectable=0;fillColor=none;top=0;left=0;bottom=0;right=0;align=left;spacingLeft=6;overflow=hidden;whiteSpace=wrap;html=1;fontSize=16;fontStyle=0" vertex="1" parent="YbiGAAGeXI5e13HnEoxO-17">
          <mxGeometry x="30" width="170" height="36" as="geometry">
            <mxRectangle width="170" height="36" as="alternateBounds" />
          </mxGeometry>
        </mxCell>
        <mxCell id="YbiGAAGeXI5e13HnEoxO-20" value="" style="shape=tableRow;horizontal=0;startSize=0;swimlaneHead=0;swimlaneBody=0;fillColor=none;collapsible=0;dropTarget=0;points=[[0,0.5],[1,0.5]];portConstraint=eastwest;top=0;left=0;right=0;bottom=0;fontSize=16;fontStyle=0" vertex="1" parent="YbiGAAGeXI5e13HnEoxO-1">
          <mxGeometry y="246" width="200" height="36" as="geometry" />
        </mxCell>
        <mxCell id="YbiGAAGeXI5e13HnEoxO-21" value="" style="shape=partialRectangle;connectable=0;fillColor=none;top=0;left=0;bottom=0;right=0;editable=1;overflow=hidden;whiteSpace=wrap;html=1;fontSize=16;fontStyle=0" vertex="1" parent="YbiGAAGeXI5e13HnEoxO-20">
          <mxGeometry width="30" height="36" as="geometry">
            <mxRectangle width="30" height="36" as="alternateBounds" />
          </mxGeometry>
        </mxCell>
        <mxCell id="YbiGAAGeXI5e13HnEoxO-22" value="marital_status" style="shape=partialRectangle;connectable=0;fillColor=none;top=0;left=0;bottom=0;right=0;align=left;spacingLeft=6;overflow=hidden;whiteSpace=wrap;html=1;fontSize=16;fontStyle=0" vertex="1" parent="YbiGAAGeXI5e13HnEoxO-20">
          <mxGeometry x="30" width="170" height="36" as="geometry">
            <mxRectangle width="170" height="36" as="alternateBounds" />
          </mxGeometry>
        </mxCell>
        <mxCell id="YbiGAAGeXI5e13HnEoxO-23" value="" style="shape=tableRow;horizontal=0;startSize=0;swimlaneHead=0;swimlaneBody=0;fillColor=none;collapsible=0;dropTarget=0;points=[[0,0.5],[1,0.5]];portConstraint=eastwest;top=0;left=0;right=0;bottom=0;fontSize=16;fontStyle=0" vertex="1" parent="YbiGAAGeXI5e13HnEoxO-1">
          <mxGeometry y="282" width="200" height="36" as="geometry" />
        </mxCell>
        <mxCell id="YbiGAAGeXI5e13HnEoxO-24" value="" style="shape=partialRectangle;connectable=0;fillColor=none;top=0;left=0;bottom=0;right=0;editable=1;overflow=hidden;whiteSpace=wrap;html=1;fontSize=16;fontStyle=0" vertex="1" parent="YbiGAAGeXI5e13HnEoxO-23">
          <mxGeometry width="30" height="36" as="geometry">
            <mxRectangle width="30" height="36" as="alternateBounds" />
          </mxGeometry>
        </mxCell>
        <mxCell id="YbiGAAGeXI5e13HnEoxO-25" value="birthdate" style="shape=partialRectangle;connectable=0;fillColor=none;top=0;left=0;bottom=0;right=0;align=left;spacingLeft=6;overflow=hidden;whiteSpace=wrap;html=1;fontSize=16;fontStyle=0" vertex="1" parent="YbiGAAGeXI5e13HnEoxO-23">
          <mxGeometry x="30" width="170" height="36" as="geometry">
            <mxRectangle width="170" height="36" as="alternateBounds" />
          </mxGeometry>
        </mxCell>
        <mxCell id="YbiGAAGeXI5e13HnEoxO-26" value="" style="shape=tableRow;horizontal=0;startSize=0;swimlaneHead=0;swimlaneBody=0;fillColor=none;collapsible=0;dropTarget=0;points=[[0,0.5],[1,0.5]];portConstraint=eastwest;top=0;left=0;right=0;bottom=0;fontSize=16;fontStyle=0" vertex="1" parent="YbiGAAGeXI5e13HnEoxO-1">
          <mxGeometry y="318" width="200" height="36" as="geometry" />
        </mxCell>
        <mxCell id="YbiGAAGeXI5e13HnEoxO-27" value="" style="shape=partialRectangle;connectable=0;fillColor=none;top=0;left=0;bottom=0;right=0;editable=1;overflow=hidden;whiteSpace=wrap;html=1;fontSize=16;fontStyle=0" vertex="1" parent="YbiGAAGeXI5e13HnEoxO-26">
          <mxGeometry width="30" height="36" as="geometry">
            <mxRectangle width="30" height="36" as="alternateBounds" />
          </mxGeometry>
        </mxCell>
        <mxCell id="YbiGAAGeXI5e13HnEoxO-28" value="create_date" style="shape=partialRectangle;connectable=0;fillColor=none;top=0;left=0;bottom=0;right=0;align=left;spacingLeft=6;overflow=hidden;whiteSpace=wrap;html=1;fontSize=16;fontStyle=0" vertex="1" parent="YbiGAAGeXI5e13HnEoxO-26">
          <mxGeometry x="30" width="170" height="36" as="geometry">
            <mxRectangle width="170" height="36" as="alternateBounds" />
          </mxGeometry>
        </mxCell>
        <mxCell id="YbiGAAGeXI5e13HnEoxO-85" value="gold.dim_products" style="shape=table;startSize=30;container=1;collapsible=1;childLayout=tableLayout;fixedRows=1;rowLines=0;fontStyle=1;align=center;resizeLast=1;html=1;fillColor=#fff2cc;strokeColor=#d6b656;rounded=1;fontSize=16;" vertex="1" parent="1">
          <mxGeometry x="750" y="120" width="200" height="426" as="geometry" />
        </mxCell>
        <mxCell id="YbiGAAGeXI5e13HnEoxO-86" value="" style="shape=tableRow;horizontal=0;startSize=0;swimlaneHead=0;swimlaneBody=0;fillColor=none;collapsible=0;dropTarget=0;points=[[0,0.5],[1,0.5]];portConstraint=eastwest;top=0;left=0;right=0;bottom=1;fontSize=16;fontStyle=1" vertex="1" parent="YbiGAAGeXI5e13HnEoxO-85">
          <mxGeometry y="30" width="200" height="36" as="geometry" />
        </mxCell>
        <mxCell id="YbiGAAGeXI5e13HnEoxO-87" value="PK" style="shape=partialRectangle;connectable=0;fillColor=none;top=0;left=0;bottom=0;right=0;fontStyle=1;overflow=hidden;whiteSpace=wrap;html=1;fontSize=16;" vertex="1" parent="YbiGAAGeXI5e13HnEoxO-86">
          <mxGeometry width="30" height="36" as="geometry">
            <mxRectangle width="30" height="36" as="alternateBounds" />
          </mxGeometry>
        </mxCell>
        <mxCell id="YbiGAAGeXI5e13HnEoxO-88" value="product_key" style="shape=partialRectangle;connectable=0;fillColor=none;top=0;left=0;bottom=0;right=0;align=left;spacingLeft=6;fontStyle=5;overflow=hidden;whiteSpace=wrap;html=1;fontSize=16;" vertex="1" parent="YbiGAAGeXI5e13HnEoxO-86">
          <mxGeometry x="30" width="170" height="36" as="geometry">
            <mxRectangle width="170" height="36" as="alternateBounds" />
          </mxGeometry>
        </mxCell>
        <mxCell id="YbiGAAGeXI5e13HnEoxO-89" value="" style="shape=tableRow;horizontal=0;startSize=0;swimlaneHead=0;swimlaneBody=0;fillColor=none;collapsible=0;dropTarget=0;points=[[0,0.5],[1,0.5]];portConstraint=eastwest;top=0;left=0;right=0;bottom=0;fontSize=16;fontStyle=0" vertex="1" parent="YbiGAAGeXI5e13HnEoxO-85">
          <mxGeometry y="66" width="200" height="36" as="geometry" />
        </mxCell>
        <mxCell id="YbiGAAGeXI5e13HnEoxO-90" value="" style="shape=partialRectangle;connectable=0;fillColor=none;top=0;left=0;bottom=0;right=0;editable=1;overflow=hidden;whiteSpace=wrap;html=1;fontSize=16;fontStyle=0" vertex="1" parent="YbiGAAGeXI5e13HnEoxO-89">
          <mxGeometry width="30" height="36" as="geometry">
            <mxRectangle width="30" height="36" as="alternateBounds" />
          </mxGeometry>
        </mxCell>
        <mxCell id="YbiGAAGeXI5e13HnEoxO-91" value="product_id" style="shape=partialRectangle;connectable=0;fillColor=none;top=0;left=0;bottom=0;right=0;align=left;spacingLeft=6;overflow=hidden;whiteSpace=wrap;html=1;fontSize=16;fontStyle=0" vertex="1" parent="YbiGAAGeXI5e13HnEoxO-89">
          <mxGeometry x="30" width="170" height="36" as="geometry">
            <mxRectangle width="170" height="36" as="alternateBounds" />
          </mxGeometry>
        </mxCell>
        <mxCell id="YbiGAAGeXI5e13HnEoxO-92" value="" style="shape=tableRow;horizontal=0;startSize=0;swimlaneHead=0;swimlaneBody=0;fillColor=none;collapsible=0;dropTarget=0;points=[[0,0.5],[1,0.5]];portConstraint=eastwest;top=0;left=0;right=0;bottom=0;fontSize=16;fontStyle=0" vertex="1" parent="YbiGAAGeXI5e13HnEoxO-85">
          <mxGeometry y="102" width="200" height="36" as="geometry" />
        </mxCell>
        <mxCell id="YbiGAAGeXI5e13HnEoxO-93" value="" style="shape=partialRectangle;connectable=0;fillColor=none;top=0;left=0;bottom=0;right=0;editable=1;overflow=hidden;whiteSpace=wrap;html=1;fontSize=16;fontStyle=0" vertex="1" parent="YbiGAAGeXI5e13HnEoxO-92">
          <mxGeometry width="30" height="36" as="geometry">
            <mxRectangle width="30" height="36" as="alternateBounds" />
          </mxGeometry>
        </mxCell>
        <mxCell id="YbiGAAGeXI5e13HnEoxO-94" value="product_number" style="shape=partialRectangle;connectable=0;fillColor=none;top=0;left=0;bottom=0;right=0;align=left;spacingLeft=6;overflow=hidden;whiteSpace=wrap;html=1;fontSize=16;fontStyle=0" vertex="1" parent="YbiGAAGeXI5e13HnEoxO-92">
          <mxGeometry x="30" width="170" height="36" as="geometry">
            <mxRectangle width="170" height="36" as="alternateBounds" />
          </mxGeometry>
        </mxCell>
        <mxCell id="YbiGAAGeXI5e13HnEoxO-95" value="" style="shape=tableRow;horizontal=0;startSize=0;swimlaneHead=0;swimlaneBody=0;fillColor=none;collapsible=0;dropTarget=0;points=[[0,0.5],[1,0.5]];portConstraint=eastwest;top=0;left=0;right=0;bottom=0;fontSize=16;fontStyle=0" vertex="1" parent="YbiGAAGeXI5e13HnEoxO-85">
          <mxGeometry y="138" width="200" height="36" as="geometry" />
        </mxCell>
        <mxCell id="YbiGAAGeXI5e13HnEoxO-96" value="" style="shape=partialRectangle;connectable=0;fillColor=none;top=0;left=0;bottom=0;right=0;editable=1;overflow=hidden;whiteSpace=wrap;html=1;fontSize=16;fontStyle=0" vertex="1" parent="YbiGAAGeXI5e13HnEoxO-95">
          <mxGeometry width="30" height="36" as="geometry">
            <mxRectangle width="30" height="36" as="alternateBounds" />
          </mxGeometry>
        </mxCell>
        <mxCell id="YbiGAAGeXI5e13HnEoxO-97" value="product_name" style="shape=partialRectangle;connectable=0;fillColor=none;top=0;left=0;bottom=0;right=0;align=left;spacingLeft=6;overflow=hidden;whiteSpace=wrap;html=1;fontSize=16;fontStyle=0" vertex="1" parent="YbiGAAGeXI5e13HnEoxO-95">
          <mxGeometry x="30" width="170" height="36" as="geometry">
            <mxRectangle width="170" height="36" as="alternateBounds" />
          </mxGeometry>
        </mxCell>
        <mxCell id="YbiGAAGeXI5e13HnEoxO-98" value="" style="shape=tableRow;horizontal=0;startSize=0;swimlaneHead=0;swimlaneBody=0;fillColor=none;collapsible=0;dropTarget=0;points=[[0,0.5],[1,0.5]];portConstraint=eastwest;top=0;left=0;right=0;bottom=0;fontSize=16;fontStyle=0" vertex="1" parent="YbiGAAGeXI5e13HnEoxO-85">
          <mxGeometry y="174" width="200" height="36" as="geometry" />
        </mxCell>
        <mxCell id="YbiGAAGeXI5e13HnEoxO-99" value="" style="shape=partialRectangle;connectable=0;fillColor=none;top=0;left=0;bottom=0;right=0;editable=1;overflow=hidden;whiteSpace=wrap;html=1;fontSize=16;fontStyle=0" vertex="1" parent="YbiGAAGeXI5e13HnEoxO-98">
          <mxGeometry width="30" height="36" as="geometry">
            <mxRectangle width="30" height="36" as="alternateBounds" />
          </mxGeometry>
        </mxCell>
        <mxCell id="YbiGAAGeXI5e13HnEoxO-100" value="category_id" style="shape=partialRectangle;connectable=0;fillColor=none;top=0;left=0;bottom=0;right=0;align=left;spacingLeft=6;overflow=hidden;whiteSpace=wrap;html=1;fontSize=16;fontStyle=0" vertex="1" parent="YbiGAAGeXI5e13HnEoxO-98">
          <mxGeometry x="30" width="170" height="36" as="geometry">
            <mxRectangle width="170" height="36" as="alternateBounds" />
          </mxGeometry>
        </mxCell>
        <mxCell id="YbiGAAGeXI5e13HnEoxO-101" value="" style="shape=tableRow;horizontal=0;startSize=0;swimlaneHead=0;swimlaneBody=0;fillColor=none;collapsible=0;dropTarget=0;points=[[0,0.5],[1,0.5]];portConstraint=eastwest;top=0;left=0;right=0;bottom=0;fontSize=16;fontStyle=0" vertex="1" parent="YbiGAAGeXI5e13HnEoxO-85">
          <mxGeometry y="210" width="200" height="36" as="geometry" />
        </mxCell>
        <mxCell id="YbiGAAGeXI5e13HnEoxO-102" value="" style="shape=partialRectangle;connectable=0;fillColor=none;top=0;left=0;bottom=0;right=0;editable=1;overflow=hidden;whiteSpace=wrap;html=1;fontSize=16;fontStyle=0" vertex="1" parent="YbiGAAGeXI5e13HnEoxO-101">
          <mxGeometry width="30" height="36" as="geometry">
            <mxRectangle width="30" height="36" as="alternateBounds" />
          </mxGeometry>
        </mxCell>
        <mxCell id="YbiGAAGeXI5e13HnEoxO-103" value="category" style="shape=partialRectangle;connectable=0;fillColor=none;top=0;left=0;bottom=0;right=0;align=left;spacingLeft=6;overflow=hidden;whiteSpace=wrap;html=1;fontSize=16;fontStyle=0" vertex="1" parent="YbiGAAGeXI5e13HnEoxO-101">
          <mxGeometry x="30" width="170" height="36" as="geometry">
            <mxRectangle width="170" height="36" as="alternateBounds" />
          </mxGeometry>
        </mxCell>
        <mxCell id="YbiGAAGeXI5e13HnEoxO-104" value="" style="shape=tableRow;horizontal=0;startSize=0;swimlaneHead=0;swimlaneBody=0;fillColor=none;collapsible=0;dropTarget=0;points=[[0,0.5],[1,0.5]];portConstraint=eastwest;top=0;left=0;right=0;bottom=0;fontSize=16;fontStyle=0" vertex="1" parent="YbiGAAGeXI5e13HnEoxO-85">
          <mxGeometry y="246" width="200" height="36" as="geometry" />
        </mxCell>
        <mxCell id="YbiGAAGeXI5e13HnEoxO-105" value="" style="shape=partialRectangle;connectable=0;fillColor=none;top=0;left=0;bottom=0;right=0;editable=1;overflow=hidden;whiteSpace=wrap;html=1;fontSize=16;fontStyle=0" vertex="1" parent="YbiGAAGeXI5e13HnEoxO-104">
          <mxGeometry width="30" height="36" as="geometry">
            <mxRectangle width="30" height="36" as="alternateBounds" />
          </mxGeometry>
        </mxCell>
        <mxCell id="YbiGAAGeXI5e13HnEoxO-106" value="subcategory" style="shape=partialRectangle;connectable=0;fillColor=none;top=0;left=0;bottom=0;right=0;align=left;spacingLeft=6;overflow=hidden;whiteSpace=wrap;html=1;fontSize=16;fontStyle=0" vertex="1" parent="YbiGAAGeXI5e13HnEoxO-104">
          <mxGeometry x="30" width="170" height="36" as="geometry">
            <mxRectangle width="170" height="36" as="alternateBounds" />
          </mxGeometry>
        </mxCell>
        <mxCell id="YbiGAAGeXI5e13HnEoxO-107" value="" style="shape=tableRow;horizontal=0;startSize=0;swimlaneHead=0;swimlaneBody=0;fillColor=none;collapsible=0;dropTarget=0;points=[[0,0.5],[1,0.5]];portConstraint=eastwest;top=0;left=0;right=0;bottom=0;fontSize=16;fontStyle=0" vertex="1" parent="YbiGAAGeXI5e13HnEoxO-85">
          <mxGeometry y="282" width="200" height="36" as="geometry" />
        </mxCell>
        <mxCell id="YbiGAAGeXI5e13HnEoxO-108" value="" style="shape=partialRectangle;connectable=0;fillColor=none;top=0;left=0;bottom=0;right=0;editable=1;overflow=hidden;whiteSpace=wrap;html=1;fontSize=16;fontStyle=0" vertex="1" parent="YbiGAAGeXI5e13HnEoxO-107">
          <mxGeometry width="30" height="36" as="geometry">
            <mxRectangle width="30" height="36" as="alternateBounds" />
          </mxGeometry>
        </mxCell>
        <mxCell id="YbiGAAGeXI5e13HnEoxO-109" value="maintenance" style="shape=partialRectangle;connectable=0;fillColor=none;top=0;left=0;bottom=0;right=0;align=left;spacingLeft=6;overflow=hidden;whiteSpace=wrap;html=1;fontSize=16;fontStyle=0" vertex="1" parent="YbiGAAGeXI5e13HnEoxO-107">
          <mxGeometry x="30" width="170" height="36" as="geometry">
            <mxRectangle width="170" height="36" as="alternateBounds" />
          </mxGeometry>
        </mxCell>
        <mxCell id="YbiGAAGeXI5e13HnEoxO-110" value="" style="shape=tableRow;horizontal=0;startSize=0;swimlaneHead=0;swimlaneBody=0;fillColor=none;collapsible=0;dropTarget=0;points=[[0,0.5],[1,0.5]];portConstraint=eastwest;top=0;left=0;right=0;bottom=0;fontSize=16;fontStyle=0" vertex="1" parent="YbiGAAGeXI5e13HnEoxO-85">
          <mxGeometry y="318" width="200" height="36" as="geometry" />
        </mxCell>
        <mxCell id="YbiGAAGeXI5e13HnEoxO-111" value="" style="shape=partialRectangle;connectable=0;fillColor=none;top=0;left=0;bottom=0;right=0;editable=1;overflow=hidden;whiteSpace=wrap;html=1;fontSize=16;fontStyle=0" vertex="1" parent="YbiGAAGeXI5e13HnEoxO-110">
          <mxGeometry width="30" height="36" as="geometry">
            <mxRectangle width="30" height="36" as="alternateBounds" />
          </mxGeometry>
        </mxCell>
        <mxCell id="YbiGAAGeXI5e13HnEoxO-112" value="cost" style="shape=partialRectangle;connectable=0;fillColor=none;top=0;left=0;bottom=0;right=0;align=left;spacingLeft=6;overflow=hidden;whiteSpace=wrap;html=1;fontSize=16;fontStyle=0" vertex="1" parent="YbiGAAGeXI5e13HnEoxO-110">
          <mxGeometry x="30" width="170" height="36" as="geometry">
            <mxRectangle width="170" height="36" as="alternateBounds" />
          </mxGeometry>
        </mxCell>
        <mxCell id="YbiGAAGeXI5e13HnEoxO-141" value="" style="shape=tableRow;horizontal=0;startSize=0;swimlaneHead=0;swimlaneBody=0;fillColor=none;collapsible=0;dropTarget=0;points=[[0,0.5],[1,0.5]];portConstraint=eastwest;top=0;left=0;right=0;bottom=0;fontSize=16;fontStyle=0" vertex="1" parent="YbiGAAGeXI5e13HnEoxO-85">
          <mxGeometry y="354" width="200" height="36" as="geometry" />
        </mxCell>
        <mxCell id="YbiGAAGeXI5e13HnEoxO-142" value="" style="shape=partialRectangle;connectable=0;fillColor=none;top=0;left=0;bottom=0;right=0;editable=1;overflow=hidden;whiteSpace=wrap;html=1;fontSize=16;fontStyle=0" vertex="1" parent="YbiGAAGeXI5e13HnEoxO-141">
          <mxGeometry width="30" height="36" as="geometry">
            <mxRectangle width="30" height="36" as="alternateBounds" />
          </mxGeometry>
        </mxCell>
        <mxCell id="YbiGAAGeXI5e13HnEoxO-143" value="product_line" style="shape=partialRectangle;connectable=0;fillColor=none;top=0;left=0;bottom=0;right=0;align=left;spacingLeft=6;overflow=hidden;whiteSpace=wrap;html=1;fontSize=16;fontStyle=0" vertex="1" parent="YbiGAAGeXI5e13HnEoxO-141">
          <mxGeometry x="30" width="170" height="36" as="geometry">
            <mxRectangle width="170" height="36" as="alternateBounds" />
          </mxGeometry>
        </mxCell>
        <mxCell id="YbiGAAGeXI5e13HnEoxO-144" value="" style="shape=tableRow;horizontal=0;startSize=0;swimlaneHead=0;swimlaneBody=0;fillColor=none;collapsible=0;dropTarget=0;points=[[0,0.5],[1,0.5]];portConstraint=eastwest;top=0;left=0;right=0;bottom=0;fontSize=16;fontStyle=0" vertex="1" parent="YbiGAAGeXI5e13HnEoxO-85">
          <mxGeometry y="390" width="200" height="36" as="geometry" />
        </mxCell>
        <mxCell id="YbiGAAGeXI5e13HnEoxO-145" value="" style="shape=partialRectangle;connectable=0;fillColor=none;top=0;left=0;bottom=0;right=0;editable=1;overflow=hidden;whiteSpace=wrap;html=1;fontSize=16;fontStyle=0" vertex="1" parent="YbiGAAGeXI5e13HnEoxO-144">
          <mxGeometry width="30" height="36" as="geometry">
            <mxRectangle width="30" height="36" as="alternateBounds" />
          </mxGeometry>
        </mxCell>
        <mxCell id="YbiGAAGeXI5e13HnEoxO-146" value="start_date" style="shape=partialRectangle;connectable=0;fillColor=none;top=0;left=0;bottom=0;right=0;align=left;spacingLeft=6;overflow=hidden;whiteSpace=wrap;html=1;fontSize=16;fontStyle=0" vertex="1" parent="YbiGAAGeXI5e13HnEoxO-144">
          <mxGeometry x="30" width="170" height="36" as="geometry">
            <mxRectangle width="170" height="36" as="alternateBounds" />
          </mxGeometry>
        </mxCell>
        <mxCell id="YbiGAAGeXI5e13HnEoxO-113" value="gold.fact_sales" style="shape=table;startSize=30;container=1;collapsible=1;childLayout=tableLayout;fixedRows=1;rowLines=0;fontStyle=1;align=center;resizeLast=1;html=1;fillColor=#dae8fc;strokeColor=#6c8ebf;rounded=1;fontSize=16;" vertex="1" parent="1">
          <mxGeometry x="390" y="120" width="200" height="346" as="geometry" />
        </mxCell>
        <mxCell id="YbiGAAGeXI5e13HnEoxO-117" value="" style="shape=tableRow;horizontal=0;startSize=0;swimlaneHead=0;swimlaneBody=0;fillColor=none;collapsible=0;dropTarget=0;points=[[0,0.5],[1,0.5]];portConstraint=eastwest;top=0;left=0;right=0;bottom=0;fontSize=16;fontStyle=1" vertex="1" parent="YbiGAAGeXI5e13HnEoxO-113">
          <mxGeometry y="30" width="200" height="36" as="geometry" />
        </mxCell>
        <mxCell id="YbiGAAGeXI5e13HnEoxO-118" value="" style="shape=partialRectangle;connectable=0;fillColor=none;top=0;left=0;bottom=0;right=0;editable=1;overflow=hidden;whiteSpace=wrap;html=1;fontSize=16;fontStyle=1" vertex="1" parent="YbiGAAGeXI5e13HnEoxO-117">
          <mxGeometry width="40" height="36" as="geometry">
            <mxRectangle width="40" height="36" as="alternateBounds" />
          </mxGeometry>
        </mxCell>
        <mxCell id="YbiGAAGeXI5e13HnEoxO-119" value="&lt;span style=&quot;font-weight: normal;&quot;&gt;order_number&lt;/span&gt;" style="shape=partialRectangle;connectable=0;fillColor=none;top=0;left=0;bottom=0;right=0;align=left;spacingLeft=6;overflow=hidden;whiteSpace=wrap;html=1;fontSize=16;fontStyle=1" vertex="1" parent="YbiGAAGeXI5e13HnEoxO-117">
          <mxGeometry x="40" width="160" height="36" as="geometry">
            <mxRectangle width="160" height="36" as="alternateBounds" />
          </mxGeometry>
        </mxCell>
        <mxCell id="YbiGAAGeXI5e13HnEoxO-147" value="" style="shape=tableRow;horizontal=0;startSize=0;swimlaneHead=0;swimlaneBody=0;fillColor=none;collapsible=0;dropTarget=0;points=[[0,0.5],[1,0.5]];portConstraint=eastwest;top=0;left=0;right=0;bottom=0;fontSize=16;fontStyle=1" vertex="1" parent="YbiGAAGeXI5e13HnEoxO-113">
          <mxGeometry y="66" width="200" height="36" as="geometry" />
        </mxCell>
        <mxCell id="YbiGAAGeXI5e13HnEoxO-148" value="FK1" style="shape=partialRectangle;connectable=0;fillColor=none;top=0;left=0;bottom=0;right=0;editable=1;overflow=hidden;whiteSpace=wrap;html=1;fontSize=16;fontStyle=1" vertex="1" parent="YbiGAAGeXI5e13HnEoxO-147">
          <mxGeometry width="40" height="36" as="geometry">
            <mxRectangle width="40" height="36" as="alternateBounds" />
          </mxGeometry>
        </mxCell>
        <mxCell id="YbiGAAGeXI5e13HnEoxO-149" value="product_key" style="shape=partialRectangle;connectable=0;fillColor=none;top=0;left=0;bottom=0;right=0;align=left;spacingLeft=6;overflow=hidden;whiteSpace=wrap;html=1;fontSize=16;fontStyle=1" vertex="1" parent="YbiGAAGeXI5e13HnEoxO-147">
          <mxGeometry x="40" width="160" height="36" as="geometry">
            <mxRectangle width="160" height="36" as="alternateBounds" />
          </mxGeometry>
        </mxCell>
        <mxCell id="YbiGAAGeXI5e13HnEoxO-120" value="" style="shape=tableRow;horizontal=0;startSize=0;swimlaneHead=0;swimlaneBody=0;fillColor=none;collapsible=0;dropTarget=0;points=[[0,0.5],[1,0.5]];portConstraint=eastwest;top=0;left=0;right=0;bottom=0;fontSize=16;fontStyle=0" vertex="1" parent="YbiGAAGeXI5e13HnEoxO-113">
          <mxGeometry y="102" width="200" height="28" as="geometry" />
        </mxCell>
        <mxCell id="YbiGAAGeXI5e13HnEoxO-121" value="&lt;b&gt;FK2&lt;/b&gt;" style="shape=partialRectangle;connectable=0;fillColor=none;top=0;left=0;bottom=0;right=0;editable=1;overflow=hidden;whiteSpace=wrap;html=1;fontSize=16;fontStyle=0" vertex="1" parent="YbiGAAGeXI5e13HnEoxO-120">
          <mxGeometry width="40" height="28" as="geometry">
            <mxRectangle width="40" height="28" as="alternateBounds" />
          </mxGeometry>
        </mxCell>
        <mxCell id="YbiGAAGeXI5e13HnEoxO-122" value="&lt;b&gt;customer_key&lt;/b&gt;" style="shape=partialRectangle;connectable=0;fillColor=none;top=0;left=0;bottom=0;right=0;align=left;spacingLeft=6;overflow=hidden;whiteSpace=wrap;html=1;fontSize=16;fontStyle=0" vertex="1" parent="YbiGAAGeXI5e13HnEoxO-120">
          <mxGeometry x="40" width="160" height="28" as="geometry">
            <mxRectangle width="160" height="28" as="alternateBounds" />
          </mxGeometry>
        </mxCell>
        <mxCell id="YbiGAAGeXI5e13HnEoxO-123" value="" style="shape=tableRow;horizontal=0;startSize=0;swimlaneHead=0;swimlaneBody=0;fillColor=none;collapsible=0;dropTarget=0;points=[[0,0.5],[1,0.5]];portConstraint=eastwest;top=0;left=0;right=0;bottom=0;fontSize=16;fontStyle=0" vertex="1" parent="YbiGAAGeXI5e13HnEoxO-113">
          <mxGeometry y="130" width="200" height="36" as="geometry" />
        </mxCell>
        <mxCell id="YbiGAAGeXI5e13HnEoxO-124" value="" style="shape=partialRectangle;connectable=0;fillColor=none;top=0;left=0;bottom=0;right=0;editable=1;overflow=hidden;whiteSpace=wrap;html=1;fontSize=16;fontStyle=0" vertex="1" parent="YbiGAAGeXI5e13HnEoxO-123">
          <mxGeometry width="40" height="36" as="geometry">
            <mxRectangle width="40" height="36" as="alternateBounds" />
          </mxGeometry>
        </mxCell>
        <mxCell id="YbiGAAGeXI5e13HnEoxO-125" value="order_date" style="shape=partialRectangle;connectable=0;fillColor=none;top=0;left=0;bottom=0;right=0;align=left;spacingLeft=6;overflow=hidden;whiteSpace=wrap;html=1;fontSize=16;fontStyle=0" vertex="1" parent="YbiGAAGeXI5e13HnEoxO-123">
          <mxGeometry x="40" width="160" height="36" as="geometry">
            <mxRectangle width="160" height="36" as="alternateBounds" />
          </mxGeometry>
        </mxCell>
        <mxCell id="YbiGAAGeXI5e13HnEoxO-126" value="" style="shape=tableRow;horizontal=0;startSize=0;swimlaneHead=0;swimlaneBody=0;fillColor=none;collapsible=0;dropTarget=0;points=[[0,0.5],[1,0.5]];portConstraint=eastwest;top=0;left=0;right=0;bottom=0;fontSize=16;fontStyle=0" vertex="1" parent="YbiGAAGeXI5e13HnEoxO-113">
          <mxGeometry y="166" width="200" height="36" as="geometry" />
        </mxCell>
        <mxCell id="YbiGAAGeXI5e13HnEoxO-127" value="" style="shape=partialRectangle;connectable=0;fillColor=none;top=0;left=0;bottom=0;right=0;editable=1;overflow=hidden;whiteSpace=wrap;html=1;fontSize=16;fontStyle=0" vertex="1" parent="YbiGAAGeXI5e13HnEoxO-126">
          <mxGeometry width="40" height="36" as="geometry">
            <mxRectangle width="40" height="36" as="alternateBounds" />
          </mxGeometry>
        </mxCell>
        <mxCell id="YbiGAAGeXI5e13HnEoxO-128" value="shipping_date" style="shape=partialRectangle;connectable=0;fillColor=none;top=0;left=0;bottom=0;right=0;align=left;spacingLeft=6;overflow=hidden;whiteSpace=wrap;html=1;fontSize=16;fontStyle=0" vertex="1" parent="YbiGAAGeXI5e13HnEoxO-126">
          <mxGeometry x="40" width="160" height="36" as="geometry">
            <mxRectangle width="160" height="36" as="alternateBounds" />
          </mxGeometry>
        </mxCell>
        <mxCell id="YbiGAAGeXI5e13HnEoxO-129" value="" style="shape=tableRow;horizontal=0;startSize=0;swimlaneHead=0;swimlaneBody=0;fillColor=none;collapsible=0;dropTarget=0;points=[[0,0.5],[1,0.5]];portConstraint=eastwest;top=0;left=0;right=0;bottom=0;fontSize=16;fontStyle=0" vertex="1" parent="YbiGAAGeXI5e13HnEoxO-113">
          <mxGeometry y="202" width="200" height="36" as="geometry" />
        </mxCell>
        <mxCell id="YbiGAAGeXI5e13HnEoxO-130" value="" style="shape=partialRectangle;connectable=0;fillColor=none;top=0;left=0;bottom=0;right=0;editable=1;overflow=hidden;whiteSpace=wrap;html=1;fontSize=16;fontStyle=0" vertex="1" parent="YbiGAAGeXI5e13HnEoxO-129">
          <mxGeometry width="40" height="36" as="geometry">
            <mxRectangle width="40" height="36" as="alternateBounds" />
          </mxGeometry>
        </mxCell>
        <mxCell id="YbiGAAGeXI5e13HnEoxO-131" value="due_date" style="shape=partialRectangle;connectable=0;fillColor=none;top=0;left=0;bottom=0;right=0;align=left;spacingLeft=6;overflow=hidden;whiteSpace=wrap;html=1;fontSize=16;fontStyle=0" vertex="1" parent="YbiGAAGeXI5e13HnEoxO-129">
          <mxGeometry x="40" width="160" height="36" as="geometry">
            <mxRectangle width="160" height="36" as="alternateBounds" />
          </mxGeometry>
        </mxCell>
        <mxCell id="YbiGAAGeXI5e13HnEoxO-132" value="" style="shape=tableRow;horizontal=0;startSize=0;swimlaneHead=0;swimlaneBody=0;fillColor=none;collapsible=0;dropTarget=0;points=[[0,0.5],[1,0.5]];portConstraint=eastwest;top=0;left=0;right=0;bottom=0;fontSize=16;fontStyle=0" vertex="1" parent="YbiGAAGeXI5e13HnEoxO-113">
          <mxGeometry y="238" width="200" height="36" as="geometry" />
        </mxCell>
        <mxCell id="YbiGAAGeXI5e13HnEoxO-133" value="" style="shape=partialRectangle;connectable=0;fillColor=none;top=0;left=0;bottom=0;right=0;editable=1;overflow=hidden;whiteSpace=wrap;html=1;fontSize=16;fontStyle=0" vertex="1" parent="YbiGAAGeXI5e13HnEoxO-132">
          <mxGeometry width="40" height="36" as="geometry">
            <mxRectangle width="40" height="36" as="alternateBounds" />
          </mxGeometry>
        </mxCell>
        <mxCell id="YbiGAAGeXI5e13HnEoxO-134" value="sales_amount" style="shape=partialRectangle;connectable=0;fillColor=none;top=0;left=0;bottom=0;right=0;align=left;spacingLeft=6;overflow=hidden;whiteSpace=wrap;html=1;fontSize=16;fontStyle=0" vertex="1" parent="YbiGAAGeXI5e13HnEoxO-132">
          <mxGeometry x="40" width="160" height="36" as="geometry">
            <mxRectangle width="160" height="36" as="alternateBounds" />
          </mxGeometry>
        </mxCell>
        <mxCell id="YbiGAAGeXI5e13HnEoxO-135" value="" style="shape=tableRow;horizontal=0;startSize=0;swimlaneHead=0;swimlaneBody=0;fillColor=none;collapsible=0;dropTarget=0;points=[[0,0.5],[1,0.5]];portConstraint=eastwest;top=0;left=0;right=0;bottom=0;fontSize=16;fontStyle=0" vertex="1" parent="YbiGAAGeXI5e13HnEoxO-113">
          <mxGeometry y="274" width="200" height="36" as="geometry" />
        </mxCell>
        <mxCell id="YbiGAAGeXI5e13HnEoxO-136" value="" style="shape=partialRectangle;connectable=0;fillColor=none;top=0;left=0;bottom=0;right=0;editable=1;overflow=hidden;whiteSpace=wrap;html=1;fontSize=16;fontStyle=0" vertex="1" parent="YbiGAAGeXI5e13HnEoxO-135">
          <mxGeometry width="40" height="36" as="geometry">
            <mxRectangle width="40" height="36" as="alternateBounds" />
          </mxGeometry>
        </mxCell>
        <mxCell id="YbiGAAGeXI5e13HnEoxO-137" value="quantity" style="shape=partialRectangle;connectable=0;fillColor=none;top=0;left=0;bottom=0;right=0;align=left;spacingLeft=6;overflow=hidden;whiteSpace=wrap;html=1;fontSize=16;fontStyle=0" vertex="1" parent="YbiGAAGeXI5e13HnEoxO-135">
          <mxGeometry x="40" width="160" height="36" as="geometry">
            <mxRectangle width="160" height="36" as="alternateBounds" />
          </mxGeometry>
        </mxCell>
        <mxCell id="YbiGAAGeXI5e13HnEoxO-138" value="" style="shape=tableRow;horizontal=0;startSize=0;swimlaneHead=0;swimlaneBody=0;fillColor=none;collapsible=0;dropTarget=0;points=[[0,0.5],[1,0.5]];portConstraint=eastwest;top=0;left=0;right=0;bottom=0;fontSize=16;fontStyle=0" vertex="1" parent="YbiGAAGeXI5e13HnEoxO-113">
          <mxGeometry y="310" width="200" height="36" as="geometry" />
        </mxCell>
        <mxCell id="YbiGAAGeXI5e13HnEoxO-139" value="" style="shape=partialRectangle;connectable=0;fillColor=none;top=0;left=0;bottom=0;right=0;editable=1;overflow=hidden;whiteSpace=wrap;html=1;fontSize=16;fontStyle=0" vertex="1" parent="YbiGAAGeXI5e13HnEoxO-138">
          <mxGeometry width="40" height="36" as="geometry">
            <mxRectangle width="40" height="36" as="alternateBounds" />
          </mxGeometry>
        </mxCell>
        <mxCell id="YbiGAAGeXI5e13HnEoxO-140" value="price" style="shape=partialRectangle;connectable=0;fillColor=none;top=0;left=0;bottom=0;right=0;align=left;spacingLeft=6;overflow=hidden;whiteSpace=wrap;html=1;fontSize=16;fontStyle=0" vertex="1" parent="YbiGAAGeXI5e13HnEoxO-138">
          <mxGeometry x="40" width="160" height="36" as="geometry">
            <mxRectangle width="160" height="36" as="alternateBounds" />
          </mxGeometry>
        </mxCell>
        <mxCell id="YbiGAAGeXI5e13HnEoxO-150" value="" style="edgeStyle=entityRelationEdgeStyle;fontSize=12;html=1;endArrow=ERzeroToMany;startArrow=ERmandOne;rounded=0;startSize=8;endSize=8;curved=0;exitX=1;exitY=0.5;exitDx=0;exitDy=0;entryX=0;entryY=0.5;entryDx=0;entryDy=0;" edge="1" parent="1" source="YbiGAAGeXI5e13HnEoxO-2" target="YbiGAAGeXI5e13HnEoxO-120">
          <mxGeometry width="100" height="100" relative="1" as="geometry">
            <mxPoint x="410" y="420" as="sourcePoint" />
            <mxPoint x="360" y="240" as="targetPoint" />
            <Array as="points">
              <mxPoint x="240" y="170" />
            </Array>
          </mxGeometry>
        </mxCell>
        <mxCell id="YbiGAAGeXI5e13HnEoxO-151" value="" style="edgeStyle=entityRelationEdgeStyle;fontSize=12;html=1;endArrow=ERzeroToMany;startArrow=ERmandOne;rounded=0;startSize=8;endSize=8;curved=0;entryX=1;entryY=0.5;entryDx=0;entryDy=0;" edge="1" parent="1" source="YbiGAAGeXI5e13HnEoxO-86" target="YbiGAAGeXI5e13HnEoxO-147">
          <mxGeometry width="100" height="100" relative="1" as="geometry">
            <mxPoint x="460" y="680" as="sourcePoint" />
            <mxPoint x="560" y="580" as="targetPoint" />
          </mxGeometry>
        </mxCell>
        <mxCell id="YbiGAAGeXI5e13HnEoxO-152" value="&lt;h1 style=&quot;margin-top: 0px;&quot;&gt;&lt;font style=&quot;font-size: 15px;&quot;&gt;&lt;u style=&quot;&quot;&gt;Sales Calculation&lt;/u&gt;&lt;/font&gt;&lt;/h1&gt;&lt;p&gt;&lt;font&gt;Sales = Quantity * Price&lt;/font&gt;&lt;/p&gt;" style="text;html=1;whiteSpace=wrap;overflow=hidden;rounded=0;" vertex="1" parent="1">
          <mxGeometry x="530" y="490" width="170" height="80" as="geometry" />
        </mxCell>
        <mxCell id="YbiGAAGeXI5e13HnEoxO-153" value="" style="endArrow=none;dashed=1;html=1;dashPattern=1 3;strokeWidth=2;rounded=0;fontSize=12;startSize=8;endSize=8;curved=1;" edge="1" parent="1">
          <mxGeometry width="50" height="50" relative="1" as="geometry">
            <mxPoint x="860" y="400" as="sourcePoint" />
            <mxPoint x="910" y="350" as="targetPoint" />
          </mxGeometry>
        </mxCell>
        <mxCell id="YbiGAAGeXI5e13HnEoxO-155" value="" style="endArrow=none;dashed=1;html=1;rounded=0;fontSize=12;startSize=8;endSize=8;curved=1;exitX=0.129;exitY=0.098;exitDx=0;exitDy=0;entryX=0.726;entryY=-0.183;entryDx=0;entryDy=0;entryPerimeter=0;exitPerimeter=0;" edge="1" parent="1" source="YbiGAAGeXI5e13HnEoxO-152" target="YbiGAAGeXI5e13HnEoxO-135">
          <mxGeometry width="50" height="50" relative="1" as="geometry">
            <mxPoint x="574.06" y="493.03999999999996" as="sourcePoint" />
            <mxPoint x="560" y="400" as="targetPoint" />
          </mxGeometry>
        </mxCell>
      </root>
    </mxGraphModel>
  </diagram>
</mxfile>
